<?xml version="1.0" standalone="no"?>
<!DOCTYPE svg PUBLIC "-//W3C//DTD SVG 1.1//EN" "http://www.w3.org/Graphics/SVG/1.1/DTD/svg11.dtd"><svg t="1635575052656"
    class="icon" viewBox="0 0 1024 1024" version="1.1" xmlns="http://www.w3.org/2000/svg" p-id="1945"
    xmlns:xlink="http://www.w3.org/1999/xlink" width="200" height="200">
    <defs>
        <style type="text/css"></style>
    </defs>
    <path
        d="M733.866667 750.933333h-3.413334l-716.8-170.666666c-10.24-3.413333-13.653333-10.24-13.653333-17.066667l34.133333-512c0-10.24 6.826667-17.066667 17.066667-17.066667l512-34.133333c6.826667 0 17.066667 3.413333 17.066667 13.653333l170.666666 716.8c0 6.826667 0 10.24-3.413333 17.066667-3.413333 0-10.24 3.413333-13.653333 3.413333zM34.133333 549.546667l675.84 160.426666L549.546667 34.133333 68.266667 68.266667 34.133333 549.546667z"
        fill="" p-id="1946"></path>
    <path
        d="M1006.933333 1024c-122.88 0-187.733333-51.2-187.733333-153.6 0-64.853333-92.16-122.88-95.573333-122.88 0 0-3.413333 0-3.413334-3.413333l-682.666666-682.666667c-3.413333-3.413333-3.413333-17.066667 0-23.893333s17.066667-6.826667 23.893333 0l682.666667 682.666666c17.066667 10.24 109.226667 68.266667 109.226666 150.186667 0 54.613333 17.066667 119.466667 153.6 119.466667 10.24 0 17.066667 6.826667 17.066667 17.066666s-6.826667 17.066667-17.066667 17.066667z"
        fill="" p-id="1947"></path>
    <path
        d="M17.066667 580.266667c-3.413333 0-10.24 0-13.653334-3.413334-6.826667-6.826667-6.826667-17.066667 0-23.893333l546.133334-546.133333c6.826667-6.826667 17.066667-6.826667 23.893333 0s6.826667 17.066667 0 23.893333l-546.133333 546.133333c0 3.413333-6.826667 3.413333-10.24 3.413334zM802.133333 1024c-44.373333 0-78.506667-13.653333-95.573333-44.373333-58.026667-81.92 10.24-245.76 10.24-252.586667 3.413333-6.826667 6.826667-10.24 13.653333-10.24 44.373333-6.826667 85.333333 17.066667 126.293334 44.373333 44.373333 27.306667 88.746667 58.026667 150.186666 58.026667 10.24 0 17.066667 6.826667 17.066667 17.066667s-6.826667 17.066667-17.066667 17.066666c-71.68 0-122.88-34.133333-167.253333-64.853333-34.133333-20.48-64.853333-40.96-92.16-40.96-17.066667 47.786667-47.786667 157.013333-13.653333 211.626667 13.653333 20.48 37.546667 30.72 68.266666 30.72 10.24 0 17.066667 6.826667 17.066667 17.066666s-6.826667 17.066667-17.066667 17.066667z"
        fill="" p-id="1948"></path>
</svg>