<svg id="图层_1" data-name="图层 1" xmlns="http://www.w3.org/2000/svg" xmlns:xlink="http://www.w3.org/1999/xlink" viewBox="0 0 800 800"><defs><style>.cls-1{fill:none;}.cls-2{clip-path:url(#clip-path);}.cls-3{fill:url(#未命名的渐变_3);}</style><clipPath id="clip-path"><rect class="cls-1" x="30.6" y="14.47" width="737.88" height="771.84"/></clipPath><linearGradient id="未命名的渐变_3" x1="30.48" y1="399.99" x2="767.76" y2="399.99" gradientUnits="userSpaceOnUse"><stop offset="0" stop-color="#6a84ff"/><stop offset="1" stop-color="#2af6ff"/></linearGradient></defs><g class="cls-2"><path class="cls-3" d="M696.76,171,478.3,37.15c-46.42-30-109.22-30-158.37,0L101.47,171c-43.68,27.31-71,76.46-71,128.34V501.37c0,51.88,27.31,101,71,128.33L319.93,763.51c24.57,13.65,51.88,21.84,79.19,21.84s54.61-8.19,79.18-21.84L696.76,629.7c43.69-27.3,71-76.45,71-128.33V299.29c0-51.88-27.31-101-71-128.34ZM508.34,181.88c8.2,0,13.66,5.46,13.66,13.65s-5.46,13.65-13.66,13.65-13.65-5.46-13.65-13.65,5.46-13.65,13.65-13.65Zm-218.45,0c8.19,0,13.65,5.46,13.65,13.65s-5.46,13.65-13.65,13.65-13.65-5.46-13.65-13.65,5.46-13.65,13.65-13.65ZM208,482.25c-8.19,0-13.65-5.46-13.65-13.65s5.46-13.66,13.65-13.66,13.65,5.46,13.65,13.66-5.46,13.65-13.65,13.65Zm147.46-87.38c-2.73,2.73-5.47,5.46-10.93,5.46-2.73,0-5.46,0-8.19-2.73L117.86,261.06c-5.46-2.73-8.2-10.92-2.73-19.11,2.73-5.46,10.92-8.19,19.11-2.73L352.7,375.75c5.46,2.74,8.19,10.93,2.73,19.12Zm57.34,319.49c0,8.19-5.46,13.65-13.65,13.65s-13.66-5.46-13.66-13.65V468.6c0-8.2,5.47-13.66,13.66-13.66s13.65,5.46,13.65,13.66ZM461.92,397.6c-2.73,2.73-5.46,2.73-8.19,2.73-5.46,0-8.19-2.73-10.92-5.46-2.73-5.46-2.73-13.65,5.46-19.12L666.72,239.22c5.46-5.46,13.65-2.73,16.39,2.73s2.73,13.65-5.47,19.11ZM563,591.47c-8.19,0-13.66-5.46-13.66-13.65s5.47-13.65,13.66-13.65,13.65,5.46,13.65,13.65-5.46,13.65-13.65,13.65Zm54.61-109.22c-8.19,0-13.65-5.46-13.65-13.65s5.46-13.66,13.65-13.66,13.65,5.46,13.65,13.66-5.46,13.65-13.65,13.65ZM672.18,373c-8.19,0-13.65-5.46-13.65-13.65s5.46-13.65,13.65-13.65,13.66,5.46,13.66,13.65S680.37,373,672.18,373Zm0,0"/></g></svg>